HIERARCHY
ROOT Hips
{
	OFFSET 0.000000 0.000000 0.000000
	CHANNELS 6 Xposition Yposition Zposition Xrotation Yrotation Zrotation
	JOINT LeftUpLeg_virtual
	{
		OFFSET 0.000000 0.000000 0.000000
		CHANNELS 3 Xrotation Yrotation Zrotation
		JOINT LeftUpLeg
		{
			OFFSET 15.427100 -6.655098 0.678600
			CHANNELS 3 Xrotation Yrotation Zrotation
			JOINT LeftLeg
			{
				OFFSET 4.081073 -39.591068 13.024000
				CHANNELS 3 Xrotation Yrotation Zrotation
				JOINT LeftFoot
				{
					OFFSET -4.081074 -37.707932 -15.979700
					CHANNELS 3 Xrotation Yrotation Zrotation
					JOINT LeftToeBase
					{
						OFFSET 5.346399 -15.068900 20.645000
						CHANNELS 3 Xrotation Yrotation Zrotation
						JOINT LeftToe_End
						{
							OFFSET 2.754700 0.931300 11.300900
							CHANNELS 3 Xrotation Yrotation Zrotation
							End Site
							{
								OFFSET 0 0 0
							}
						}
					}
				}
			}
		}
	}
	JOINT RightUpLeg_virtual
	{
		OFFSET 0.000000 0.000000 0.000000
		CHANNELS 3 Xrotation Yrotation Zrotation
		JOINT RightUpLeg
		{
			OFFSET -15.569500 -6.655098 0.678600
			CHANNELS 3 Xrotation Yrotation Zrotation
			JOINT RightLeg
			{
				OFFSET -4.081825 -39.591045 13.023800
				CHANNELS 3 Xrotation Yrotation Zrotation
				JOINT RightFoot
				{
					OFFSET 4.081824 -37.707954 -15.979600
					CHANNELS 3 Xrotation Yrotation Zrotation
					JOINT RightToeBase
					{
						OFFSET -5.346400 -15.068900 20.645000
						CHANNELS 3 Xrotation Yrotation Zrotation
						JOINT RightToe_End
						{
							OFFSET -2.754700 0.931300 11.300900
							CHANNELS 3 Xrotation Yrotation Zrotation
							End Site
							{
								OFFSET 0 0 0
							}
						}
					}
				}
			}
		}
	}
	JOINT Spine_virtual
	{
		OFFSET 0.000000 0.000000 0.000000
		CHANNELS 3 Xrotation Yrotation Zrotation
		JOINT Spine
		{
			OFFSET -0.279200 12.230698 -2.892100
			CHANNELS 3 Xrotation Yrotation Zrotation
			JOINT Spine1
			{
				OFFSET -0.232667 10.192268 -1.242267
				CHANNELS 3 Xrotation Yrotation Zrotation
				JOINT Spine1_split
				{
					OFFSET -0.232667 10.192268 -1.242267
					CHANNELS 3 Xrotation Yrotation Zrotation
					JOINT Spine2
					{
						OFFSET -0.232667 10.192268 -1.242267
						CHANNELS 3 Xrotation Yrotation Zrotation
						JOINT Neck_virtual
						{
							OFFSET 0.000000 0.000000 0.000000
							CHANNELS 3 Xrotation Yrotation Zrotation
							JOINT Neck
							{
								OFFSET -0.418800 17.814194 8.416900
								CHANNELS 3 Xrotation Yrotation Zrotation
								JOINT Head
								{
									OFFSET 0.000000 7.031097 3.806800
									CHANNELS 3 Xrotation Yrotation Zrotation
									JOINT HeadTop_End
									{
										OFFSET 0.000000 24.646606 12.978600
										CHANNELS 3 Xrotation Yrotation Zrotation
										End Site
										{
											OFFSET 0 0 0
										}
									}
								}
							}
						}
						JOINT LeftShoulder_virtual
						{
							OFFSET 0.000000 0.000000 0.000000
							CHANNELS 3 Xrotation Yrotation Zrotation
							JOINT LeftShoulder
							{
								OFFSET 8.476499 7.247704 -3.868750
								CHANNELS 3 Xrotation Yrotation Zrotation
								JOINT LeftShoulder_split
								{
									OFFSET 8.476499 7.247704 -3.868750
									CHANNELS 3 Xrotation Yrotation Zrotation
									JOINT LeftArm
									{
										OFFSET 9.308998 -2.777710 0.208600
										CHANNELS 3 Xrotation Yrotation Zrotation
										JOINT LeftForeArm
										{
											OFFSET 29.972298 0.000000 0.000000
											CHANNELS 3 Xrotation Yrotation Zrotation
											JOINT LeftHand
											{
												OFFSET 26.026505 0.000000 0.000000
												CHANNELS 3 Xrotation Yrotation Zrotation
												End Site
												{
													OFFSET 0 0 0
												}
											}
										}
									}
								}
							}
						}
						JOINT RightShoulder_virtual
						{
							OFFSET 0.000000 0.000000 0.000000
							CHANNELS 3 Xrotation Yrotation Zrotation
							JOINT RightShoulder
							{
								OFFSET -7.570500 7.247704 -3.868750
								CHANNELS 3 Xrotation Yrotation Zrotation
								JOINT RightShoulder_split
								{
									OFFSET -7.570500 7.247704 -3.868750
									CHANNELS 3 Xrotation Yrotation Zrotation
									JOINT RightArm
									{
										OFFSET -9.308998 -2.777710 0.208500
										CHANNELS 3 Xrotation Yrotation Zrotation
										JOINT RightForeArm
										{
											OFFSET -29.972300 0.000000 0.000000
											CHANNELS 3 Xrotation Yrotation Zrotation
											JOINT RightHand
											{
												OFFSET -26.026505 0.000000 0.000000
												CHANNELS 3 Xrotation Yrotation Zrotation
												End Site
												{
													OFFSET 0 0 0
												}
											}
										}
									}
								}
							}
						}
					}
				}
			}
		}
	}
}
MOTION
Frames: 6
Frame Time: 0.03333333
4.371387 82.588654 121.248253 0.000000 0.000000 0.000000 4.289152 -3.101247 -3.474630 -45.189116 1.857242 11.544324 33.642227 -3.075082 0.806269 -0.894307 -12.215139 -4.737600 2.798925 -2.673751 -1.234872 0.000000 0.000000 0.000000 4.726840 0.579231 -3.255812 -16.263242 1.928365 10.407698 39.616791 4.405128 1.919493 -25.121680 -2.564181 -1.015417 3.171163 0.764266 0.052406 0.000000 0.000000 0.000000 2.252234 0.636603 -2.518534 17.217292 3.225279 -0.054668 18.923505 6.862420 3.820795 0.946415 -3.911199 1.849288 0.000000 0.000000 0.000000 17.772880 7.869326 2.840770 -46.877709 20.803660 -27.581900 39.694792 -40.044829 40.760151 0.000000 0.000000 0.000000 19.551058 7.190442 3.427402 -2.182795 -12.567370 -7.283241 -4.241128 3.973007 -6.044736 -11.647059 -1.367873 -57.790791 -1.355808 -68.979849 -3.652433 0.000000 0.000000 0.000000 18.216731 8.087758 3.480479 0.026768 19.450640 6.707466 -2.471438 4.849180 8.875942 -56.474521 6.422944 31.743758 -170.287012 81.526381 169.674794 0.000000 0.000000 0.000000 
3.962662 82.824814 119.603302 0.000000 0.000000 0.000000 2.227885 -2.912818 -4.159186 -43.148740 0.997821 13.146074 33.086994 -0.223950 1.293525 -4.040325 -9.574930 -5.865709 1.045013 -2.863780 -0.549786 0.000000 0.000000 0.000000 2.907480 0.298214 -3.884023 -16.095588 1.539478 11.285135 39.397409 4.853512 2.226738 -23.550602 -2.566711 -1.399195 3.017428 0.721756 0.120773 0.000000 0.000000 0.000000 0.250665 0.697041 -3.454654 17.116616 3.112318 0.343818 18.139616 6.560374 3.817986 0.903234 -4.075011 1.697206 0.000000 0.000000 0.000000 16.945681 7.658549 2.809633 -47.422632 19.537826 -26.773397 40.225484 -38.487952 40.247993 0.000000 0.000000 0.000000 18.759198 6.920316 3.412283 -1.733931 -11.570801 -6.768435 -4.128404 4.080903 -5.949679 -14.125091 -1.352735 -59.716125 -0.082110 -63.213988 -2.599055 0.000000 0.000000 0.000000 17.416279 7.822545 3.513111 -0.046423 17.215622 8.473174 -1.934259 4.628034 8.556110 -59.577650 7.740850 30.922636 -169.721581 82.149991 169.292427 0.000000 0.000000 0.000000 
3.573944 82.942154 118.043579 0.000000 0.000000 0.000000 0.338872 -2.738896 -4.619574 -41.388494 0.290878 14.592899 33.847105 1.680743 1.741759 -6.253825 -7.766244 -7.969257 -1.164870 -3.074068 0.726026 0.000000 0.000000 0.000000 1.235808 0.139580 -4.308448 -16.113571 1.665752 11.998069 39.842635 5.424155 2.254759 -22.229899 -2.773415 -1.608443 2.546134 0.621754 0.226117 0.000000 0.000000 0.000000 -1.624693 0.954830 -4.201882 16.973893 3.004280 0.775315 17.393208 6.123510 3.736300 0.836722 -4.469076 1.497405 0.000000 0.000000 0.000000 16.171006 7.281076 2.737909 -47.872092 18.083872 -25.744597 40.277868 -37.026104 39.025269 0.000000 0.000000 0.000000 18.033571 6.513316 3.323782 -1.265300 -10.606035 -6.348168 -4.076739 4.226759 -5.779540 -16.563496 -0.959956 -61.270007 0.891860 -57.691582 -1.831001 0.000000 0.000000 0.000000 16.738649 7.404437 3.445395 -0.007845 14.976155 10.192980 -1.502891 4.518489 8.372862 -63.942776 8.469135 30.285687 -169.917553 82.415248 169.641299 0.000000 0.000000 0.000000 
3.234692 82.985550 116.557533 0.000000 0.000000 0.000000 -1.256647 -2.527996 -4.938495 -39.681172 -0.176341 15.759746 36.186841 3.059561 1.939429 -7.940930 -6.493133 -10.063950 -2.989434 -3.266111 2.028737 0.000000 0.000000 0.000000 -0.275613 0.020226 -4.640340 -16.326655 2.029584 12.651694 40.784938 6.133069 2.112319 -21.252900 -3.058004 -1.558584 1.786756 0.496272 0.343895 0.000000 0.000000 0.000000 -3.216044 1.415318 -4.804526 16.733490 2.897905 1.280344 16.644292 5.552000 3.585275 0.629794 -4.747656 1.318810 0.000000 0.000000 0.000000 15.420467 6.738875 2.619212 -48.086513 16.430732 -24.544934 39.936113 -35.723399 37.276533 0.000000 0.000000 0.000000 17.320859 5.972675 3.182812 -0.796294 -9.683779 -6.014983 -3.997390 4.363973 -5.586393 -18.446227 -0.200859 -62.399174 1.609681 -53.171612 -1.295297 0.000000 0.000000 0.000000 16.120737 6.826405 3.286947 0.153472 12.762055 11.604132 -1.052140 4.476658 8.239897 -69.356794 8.442145 29.869486 -171.478169 81.716178 171.310666 0.000000 0.000000 0.000000 
2.967689 82.996262 115.114082 0.000000 0.000000 0.000000 -2.517513 -2.175092 -5.288076 -38.000980 -0.707468 16.658321 40.201899 4.509385 1.733075 -9.185445 -5.467908 -11.061783 -4.327147 -3.285124 2.733536 0.000000 0.000000 0.000000 -1.600386 0.088173 -4.998356 -16.405184 2.387251 13.338252 41.785462 6.795699 1.955886 -20.818087 -3.327680 -1.609798 1.330463 0.402872 0.468486 0.000000 0.000000 0.000000 -4.502875 2.085209 -5.333386 16.378244 2.753894 1.875911 15.856072 4.872925 3.398465 0.400253 -4.905890 1.199704 0.000000 0.000000 0.000000 14.676953 6.070731 2.463911 -47.953672 14.613154 -23.241443 39.267792 -34.728712 35.287442 0.000000 0.000000 0.000000 16.577900 5.327644 3.019702 -0.355966 -8.916171 -5.723983 -3.788242 4.452714 -5.393552 -19.524939 0.879452 -63.126268 2.167932 -50.156470 -0.900303 0.000000 0.000000 0.000000 15.483742 6.106084 3.079587 0.411030 10.595378 12.500474 -0.363595 4.403849 8.131332 -75.730563 7.733240 29.643854 -173.715835 79.681246 173.612658 0.000000 0.000000 0.000000 
2.808675 82.983887 113.665237 0.000000 0.000000 0.000000 -3.525290 -1.858706 -5.753661 -36.909372 -1.867500 17.836643 46.306996 5.814437 1.267020 -8.626866 -4.747212 -11.214086 -5.587116 -3.021881 2.176188 0.000000 0.000000 0.000000 -2.676165 0.345915 -5.459910 -16.204673 2.572272 14.112284 42.454827 7.273458 1.875918 -21.078763 -3.545728 -2.023438 1.482047 0.369528 0.599658 0.000000 0.000000 0.000000 -5.430993 2.783907 -5.867342 15.893210 2.534669 2.552738 15.009115 4.113986 3.216772 0.177399 -4.802473 1.108857 0.000000 0.000000 0.000000 13.937750 5.327288 2.299877 -47.439837 12.678499 -21.950587 38.301491 -34.245325 33.330121 0.000000 0.000000 0.000000 15.762157 4.621537 2.883820 0.034005 -8.388274 -5.430119 -3.399145 4.405807 -5.287169 -19.644814 2.135597 -63.487551 2.588240 -48.916544 -0.605944 0.000000 0.000000 0.000000 14.768484 5.297877 2.873278 0.728832 8.504882 12.714810 0.542139 4.363193 7.971634 -82.788962 6.594134 29.494649 -175.352225 76.575354 175.272216 0.000000 0.000000 0.000000 
